<?xml version="1.0" encoding="utf-8"?>
<!-- Generator: Adobe Illustrator 25.0.1, SVG Export Plug-In . SVG Version: 6.00 Build 0)  -->
<svg version="1.1" id="Layer_1" xmlns="http://www.w3.org/2000/svg" xmlns:xlink="http://www.w3.org/1999/xlink" x="0px" y="0px"
	 viewBox="0 0 653.68 670.48" style="enable-background:new 0 0 653.68 670.48;" xml:space="preserve">
<g>
	<path d="M509.69,216.01c-83.2,0-115.2,83.2-131.2,112c-16,28.8-28.8,54.4-57.6,54.4c-28.8,0-59.2-20.8-59.2-20.8
		c78.4-40,105.6-172.81,12.8-217.61S60.08,195.2,60.08,195.2l46.4,75.2c0,0,9.6-6.4,76.8-35.2c67.2-28.8,105.6,12.8,105.6,28.8
		s-16,54.4-64,54.4s-76.8,0-76.8,0l44.8,102.4c25.6,0,108.8-9.6,108.8,67.2s-73.6,86.4-105.6,86.4
		c-153.6,0-172.81-144-182.41-176.01s-12.8-25.6-12.8-25.6C-11.93,580.8,119.27,673.6,218.48,670.4c99.2-3.2,134.4-76.8,144-137.6
		c9.6-60.8-25.6-115.2-25.6-115.2c64,0,70.4,6.4,102.4-25.6s57.6-112,108.8-115.2c51.2-3.2,60.8,41.6,60.8,83.2
		c0,64-28.8,153.6-118.4,153.6c-80,3.2-83.2-80-83.2-80c-32,76.8,16,182.41,99.2,182.41c137.6-6.4,147.2-150.4,147.2-211.21
		C647.3,292.81,592.9,216.01,509.69,216.01z"/>
	<path d="M428.09,204.81c108.8,3.2,163.2-67.2,163.2-67.2l-48-67.2c0,0-35.2,60.8-124.8,64s-134.4-89.6-134.4-89.6
		C271.29,92.8,319.29,201.61,428.09,204.81z"/>
	<polygon points="469.69,57.6 405.69,0 348.09,64 408.89,118.29 	"/>
</g>
</svg>
